<?xml version="1.0" encoding="UTF-8" standalone="no" ?>
<!DOCTYPE svg PUBLIC "-//W3C//DTD SVG 1.1//EN" "http://www.w3.org/Graphics/SVG/1.1/DTD/svg11.dtd">
<svg xmlns="http://www.w3.org/2000/svg" xmlns:xlink="http://www.w3.org/1999/xlink" version="1.1" width="1080" height="1080" viewBox="0 0 1080 1080" xml:space="preserve">
<desc>Created with Fabric.js 5.2.4</desc>
<defs>
</defs>
<g transform="matrix(1 0 0 1 540 540)" id="de7e6d8c-ee61-46f8-af22-74234e9004a6"  >
</g>
<g transform="matrix(1 0 0 1 540 540)" id="d63ccbc5-085e-4352-934e-4ebc31b4a2ed"  >
<rect style="stroke: none; stroke-width: 1; stroke-dasharray: none; stroke-linecap: butt; stroke-dashoffset: 0; stroke-linejoin: miter; stroke-miterlimit: 4; fill: rgb(255,255,255); fill-rule: nonzero; opacity: 1; visibility: hidden;" vector-effect="non-scaling-stroke"  x="-540" y="-540" rx="0" ry="0" width="1080" height="1080" />
</g>
<g transform="matrix(6.19 0 0 6.19 508.74 725.26)"  >
<path style="stroke:rgb(0, 150, 140); stroke-width: 0; stroke-dasharray: none; stroke-linecap: butt; stroke-dashoffset: 0; stroke-linejoin: miter; stroke-miterlimit: 4; fill: #00968c; fill-rule: nonzero; opacity: 1;" vector-effect="non-scaling-stroke"  transform=" translate(-129.52, -121.42)" d="M 159.108902 152.146515 C 151.120743 156.645935 142.894745 159.0728 134.109741 159.586334 C 129.056839 159.881729 126.306122 158.069885 125.997787 154.29454 C 125.682541 150.434525 128.067642 148.050064 133.038177 147.831619 C 157.246384 146.767685 175.405502 127.020622 174.370132 103.011948 C 173.739716 88.393883 174.25383 73.726463 174.25383 58.756401 C 147.791489 58.756401 121.70974 58.756401 94.950111 58.756401 C 94.950111 64.31221 94.951118 69.915497 94.949493 75.518784 C 94.949013 77.184753 94.978836 78.851852 94.929146 80.516472 C 94.812393 84.42765 92.963745 86.975113 88.890099 86.941025 C 85.040527 86.908821 83.177597 84.283928 83.13472 80.73172 C 83.000114 69.580841 83.085205 58.427311 83.085205 46.763908 C 90.108261 46.763908 96.891243 46.763908 104.411552 46.763908 C 104.411552 40.001122 104.379875 33.728767 104.421265 27.4569 C 104.456429 22.128157 106.622971 19.246069 110.551445 19.601315 C 115.210587 20.022629 116.388115 23.144211 116.277634 27.367561 C 116.116669 33.520527 116.23629 39.680828 116.23629 46.246792 C 128.476532 46.246792 140.507797 46.246792 153.002777 46.246792 C 153.002777 41.816364 152.99617 37.523502 153.004074 33.230671 C 153.024048 22.375994 154.220505 19.529675 158.792465 19.427038 C 163.553879 19.320147 164.810303 22.232544 164.830429 33.45335 C 164.83812 37.744579 164.83168 42.035831 164.83168 46.722488 C 172.174881 46.722488 178.942337 46.722488 185.860703 46.722488 C 185.860703 68.267372 186.784119 89.461151 185.578659 110.533134 C 184.550064 128.513519 174.887589 142.407806 159.108902 152.146515 M 134.518082 104.258926 C 127.392471 103.851097 120.390564 104.073807 113.427063 103.656189 C 111.11554 103.51757 107.797417 102.272614 106.956993 100.549469 C 106.124168 98.841934 107.137962 95.332664 108.546837 93.585129 C 115.540054 84.910973 122.940697 76.56572 130.17778 68.087502 C 132.727783 65.100174 135.623535 63.534264 139.244858 66.164764 C 142.331635 68.406982 142.254974 71.932915 139.152328 75.681969 C 134.859222 80.869514 130.501724 86.003777 125.720093 91.698845 C 133.606262 91.698845 140.709045 91.460983 147.779556 91.834404 C 150.095505 91.956726 153.479477 93.119576 154.279144 94.802483 C 155.104721 96.539879 154.09671 100.089821 152.654556 101.810844 C 143.251633 113.032089 133.537903 123.99395 123.868797 134.990509 C 120.74514 138.543015 116.745163 139.283829 114.424736 136.644547 C 111.627937 133.46344 112.4123 130.328537 115.073242 127.2939 C 121.654037 119.788948 128.135422 112.196838 134.518082 104.258926 M 120.862236 213.179077 C 118.761909 208.46669 116.793945 204.108521 114.192459 198.347397 C 113.035675 207.35257 112.063057 214.924057 111.078209 222.590729 C 108.718513 222.590729 106.629448 222.590729 104.140816 222.590729 C 105.527855 209.950394 106.882446 197.605774 108.242065 185.215271 C 112.843056 183.763687 115.81472 184.536713 117.653549 189.765442 C 120.04969 196.578949 123.466293 203.033585 126.914726 210.687988 C 130.249405 203.142136 133.446594 196.654373 135.979538 189.916901 C 137.708923 185.316833 140.287613 183.658035 145.354004 185.32164 C 146.778778 197.471298 148.225861 209.81134 149.713821 222.499939 C 147.302933 222.499939 145.21022 222.499939 142.599976 222.499939 C 141.676056 215.17218 140.733002 207.692505 139.789932 200.212845 C 139.451782 200.098846 139.113632 199.984863 138.775482 199.870865 C 136.028931 205.918716 133.397659 212.023422 130.461731 217.977905 C 129.639053 219.646423 127.919312 220.87265 126.611061 222.301758 C 125.435402 220.887054 124.119202 219.563446 123.125793 218.03064 C 122.231476 216.650742 121.691093 215.041443 120.862236 213.179077 M 237.134003 217.935333 C 231.912521 211.433456 226.915878 205.215607 221.029877 197.891022 C 221.029877 206.815659 221.029877 214.588409 221.029877 222.573853 C 218.18222 222.573853 216.094116 222.573853 213.80043 222.573853 C 213.80043 210.0271 213.80043 197.6194 213.80043 185.310013 C 218.188354 183.558502 220.732635 185.435852 223.162888 188.711273 C 228.203644 195.505035 233.569046 202.057938 239.678406 209.825455 C 239.678406 200.756729 239.678406 192.949478 239.678406 184.952927 C 242.268204 184.952927 244.214539 184.952927 246.527863 184.952927 C 246.527863 197.318207 246.527863 209.693924 246.527863 222.155792 C 241.934128 224.467728 239.631424 221.379425 237.134003 217.935333 M 189.598846 200.436798 C 191.335526 200.435425 192.622177 200.435425 194.013031 200.435425 C 194.013031 202.810394 194.013031 204.725403 194.013031 206.900482 C 187.438965 206.900482 181.149841 206.900482 174.481567 206.900482 C 174.481567 210.017075 174.481567 212.878983 174.481567 216.11644 C 181.649216 216.11644 188.742188 216.11644 196.225128 216.11644 C 196.225128 218.348557 196.225128 220.227097 196.225128 222.484894 C 186.75325 222.484894 177.208969 222.484894 167.290009 222.484894 C 167.290009 210.185654 167.290009 197.810516 167.290009 185.040741 C 176.748001 185.040741 186.27623 185.040741 196.006989 185.040741 C 196.006989 186.832886 196.006989 188.630951 196.006989 190.952515 C 188.949219 190.952515 181.875229 190.952515 174.469391 190.952515 C 174.469391 194.185776 174.469391 196.914551 174.469391 200.438187 C 179.328568 200.438187 184.238678 200.438187 189.598846 200.436798 M 53.882187 197.003494 C 53.882221 192.720688 53.882221 188.934204 53.882221 184.964294 C 56.494114 184.964294 58.574883 184.964294 61.148998 184.964294 C 61.148998 191.933899 61.049438 198.718979 61.184132 205.49939 C 61.273376 209.992218 62.229931 214.239929 67.149597 216.003433 C 74.007561 218.461746 79.719826 215.071457 80.244621 207.60968 C 80.767494 200.175232 80.359238 192.675278 80.359238 184.984375 C 83.099174 184.984375 85.224342 184.984375 87.500137 184.984375 C 87.500137 193.369385 88.32135 201.888046 87.284782 210.174316 C 86.086197 219.755737 78.739738 224.290161 68.731079 223.276993 C 59.484051 222.340942 54.193687 216.566635 53.904022 206.994965 C 53.808319 203.832596 53.884541 200.665009 53.882187 197.003494 M 37.595566 222.855637 C 29.026272 222.864426 20.91901 222.864426 12.519815 222.864426 C 12.519815 210.026871 12.519815 197.641434 12.519815 184.956497 C 14.784874 184.956497 17.013344 184.956497 19.572916 184.956497 C 19.572916 195.248001 19.572916 205.340759 19.572916 216.060638 C 26.404987 216.060638 32.952335 216.060638 40.986603 216.060638 C 39.716068 219.004349 38.886837 220.925598 37.595566 222.855637 z" stroke-linecap="round" />
</g>
</svg>