<svg version="1.1" id="Layer_1" xmlns="http://www.w3.org/2000/svg" xmlns:xlink="http://www.w3.org/1999/xlink" x="0px" y="0px"
	 width="100%" viewBox="0 0 260 234" enable-background="new 0 0 0 234" xml:space="preserve">

<path fill="#00968c" opacity="1.000000" stroke="none" 
	d="
M159.108902,152.146515 
	C151.120743,156.645935 142.894745,159.072800 134.109741,159.586334 
	C129.056839,159.881729 126.306122,158.069885 125.997787,154.294540 
	C125.682541,150.434525 128.067642,148.050064 133.038177,147.831619 
	C157.246384,146.767685 175.405502,127.020622 174.370132,103.011948 
	C173.739716,88.393883 174.253830,73.726463 174.253830,58.756401 
	C147.791489,58.756401 121.709740,58.756401 94.950111,58.756401 
	C94.950111,64.312210 94.951118,69.915497 94.949493,75.518784 
	C94.949013,77.184753 94.978836,78.851852 94.929146,80.516472 
	C94.812393,84.427650 92.963745,86.975113 88.890099,86.941025 
	C85.040527,86.908821 83.177597,84.283928 83.134720,80.731720 
	C83.000114,69.580841 83.085205,58.427311 83.085205,46.763908 
	C90.108261,46.763908 96.891243,46.763908 104.411552,46.763908 
	C104.411552,40.001122 104.379875,33.728767 104.421265,27.456900 
	C104.456429,22.128157 106.622971,19.246069 110.551445,19.601315 
	C115.210587,20.022629 116.388115,23.144211 116.277634,27.367561 
	C116.116669,33.520527 116.236290,39.680828 116.236290,46.246792 
	C128.476532,46.246792 140.507797,46.246792 153.002777,46.246792 
	C153.002777,41.816364 152.996170,37.523502 153.004074,33.230671 
	C153.024048,22.375994 154.220505,19.529675 158.792465,19.427038 
	C163.553879,19.320147 164.810303,22.232544 164.830429,33.453350 
	C164.838120,37.744579 164.831680,42.035831 164.831680,46.722488 
	C172.174881,46.722488 178.942337,46.722488 185.860703,46.722488 
	C185.860703,68.267372 186.784119,89.461151 185.578659,110.533134 
	C184.550064,128.513519 174.887589,142.407806 159.108902,152.146515 

M134.518082,104.258926 
	C127.392471,103.851097 120.390564,104.073807 113.427063,103.656189 
	C111.115540,103.517570 107.797417,102.272614 106.956993,100.549469 
	C106.124168,98.841934 107.137962,95.332664 108.546837,93.585129 
	C115.540054,84.910973 122.940697,76.565720 130.177780,68.087502 
	C132.727783,65.100174 135.623535,63.534264 139.244858,66.164764 
	C142.331635,68.406982 142.254974,71.932915 139.152328,75.681969 
	C134.859222,80.869514 130.501724,86.003777 125.720093,91.698845 
	C133.606262,91.698845 140.709045,91.460983 147.779556,91.834404 
	C150.095505,91.956726 153.479477,93.119576 154.279144,94.802483 
	C155.104721,96.539879 154.096710,100.089821 152.654556,101.810844 
	C143.251633,113.032089 133.537903,123.993950 123.868797,134.990509 
	C120.745140,138.543015 116.745163,139.283829 114.424736,136.644547 
	C111.627937,133.463440 112.412300,130.328537 115.073242,127.293900 
	C121.654037,119.788948 128.135422,112.196838 134.518082,104.258926 

M120.862236,213.179077 
	C118.761909,208.466690 116.793945,204.108521 114.192459,198.347397 
	C113.035675,207.352570 112.063057,214.924057 111.078209,222.590729 
	C108.718513,222.590729 106.629448,222.590729 104.140816,222.590729 
	C105.527855,209.950394 106.882446,197.605774 108.242065,185.215271 
	C112.843056,183.763687 115.814720,184.536713 117.653549,189.765442 
	C120.049690,196.578949 123.466293,203.033585 126.914726,210.687988 
	C130.249405,203.142136 133.446594,196.654373 135.979538,189.916901 
	C137.708923,185.316833 140.287613,183.658035 145.354004,185.321640 
	C146.778778,197.471298 148.225861,209.811340 149.713821,222.499939 
	C147.302933,222.499939 145.210220,222.499939 142.599976,222.499939 
	C141.676056,215.172180 140.733002,207.692505 139.789932,200.212845 
	C139.451782,200.098846 139.113632,199.984863 138.775482,199.870865 
	C136.028931,205.918716 133.397659,212.023422 130.461731,217.977905 
	C129.639053,219.646423 127.919312,220.872650 126.611061,222.301758 
	C125.435402,220.887054 124.119202,219.563446 123.125793,218.030640 
	C122.231476,216.650742 121.691093,215.041443 120.862236,213.179077 

M237.134003,217.935333 
	C231.912521,211.433456 226.915878,205.215607 221.029877,197.891022 
	C221.029877,206.815659 221.029877,214.588409 221.029877,222.573853 
	C218.182220,222.573853 216.094116,222.573853 213.800430,222.573853 
	C213.800430,210.027100 213.800430,197.619400 213.800430,185.310013 
	C218.188354,183.558502 220.732635,185.435852 223.162888,188.711273 
	C228.203644,195.505035 233.569046,202.057938 239.678406,209.825455 
	C239.678406,200.756729 239.678406,192.949478 239.678406,184.952927 
	C242.268204,184.952927 244.214539,184.952927 246.527863,184.952927 
	C246.527863,197.318207 246.527863,209.693924 246.527863,222.155792 
	C241.934128,224.467728 239.631424,221.379425 237.134003,217.935333 

M189.598846,200.436798 
	C191.335526,200.435425 192.622177,200.435425 194.013031,200.435425 
	C194.013031,202.810394 194.013031,204.725403 194.013031,206.900482 
	C187.438965,206.900482 181.149841,206.900482 174.481567,206.900482 
	C174.481567,210.017075 174.481567,212.878983 174.481567,216.116440 
	C181.649216,216.116440 188.742188,216.116440 196.225128,216.116440 
	C196.225128,218.348557 196.225128,220.227097 196.225128,222.484894 
	C186.753250,222.484894 177.208969,222.484894 167.290009,222.484894 
	C167.290009,210.185654 167.290009,197.810516 167.290009,185.040741 
	C176.748001,185.040741 186.276230,185.040741 196.006989,185.040741 
	C196.006989,186.832886 196.006989,188.630951 196.006989,190.952515 
	C188.949219,190.952515 181.875229,190.952515 174.469391,190.952515 
	C174.469391,194.185776 174.469391,196.914551 174.469391,200.438187 
	C179.328568,200.438187 184.238678,200.438187 189.598846,200.436798 

M53.882187,197.003494 
	C53.882221,192.720688 53.882221,188.934204 53.882221,184.964294 
	C56.494114,184.964294 58.574883,184.964294 61.148998,184.964294 
	C61.148998,191.933899 61.049438,198.718979 61.184132,205.499390 
	C61.273376,209.992218 62.229931,214.239929 67.149597,216.003433 
	C74.007561,218.461746 79.719826,215.071457 80.244621,207.609680 
	C80.767494,200.175232 80.359238,192.675278 80.359238,184.984375 
	C83.099174,184.984375 85.224342,184.984375 87.500137,184.984375 
	C87.500137,193.369385 88.321350,201.888046 87.284782,210.174316 
	C86.086197,219.755737 78.739738,224.290161 68.731079,223.276993 
	C59.484051,222.340942 54.193687,216.566635 53.904022,206.994965 
	C53.808319,203.832596 53.884541,200.665009 53.882187,197.003494 

M37.595566,222.855637 
	C29.026272,222.864426 20.919010,222.864426 12.519815,222.864426 
	C12.519815,210.026871 12.519815,197.641434 12.519815,184.956497 
	C14.784874,184.956497 17.013344,184.956497 19.572916,184.956497 
	C19.572916,195.248001 19.572916,205.340759 19.572916,216.060638 
	C26.404987,216.060638 32.952335,216.060638 40.986603,216.060638 
	C39.716068,219.004349 38.886837,220.925598 37.595566,222.855637 
z"/>
</svg>